<svg xmlns="http://www.w3.org/2000/svg" xmlns:xlink="http://www.w3.org/1999/xlink" width="256" height="256" viewBox="0 0 256 256">
  <defs>
    <clipPath id="clip-ddo-kapao">
      <rect width="256" height="256"/>
    </clipPath>
  </defs>
  <g id="ddo-kapao" clip-path="url(#clip-ddo-kapao)">
    <rect width="256" height="256" 
fill="#fff"/>
    <path id="Intersection_1" data-name="Intersection 1" d="M-155,36.4a127.572,127.572,0,0,1,34.181,18.475,128.552,128.552,0,0,1,26.9,27.595,127.44,127.44,0,0,1,17.608,34.708A127.906,127.906,0,0,1-70,157a127.906,127.906,0,0,1-6.314,39.819,127.445,127.445,0,0,1-17.608,34.709,128.547,128.547,0,0,1-26.9,27.594A127.543,127.543,0,0,1-155,277.6h0Z" transform="translate(326 -29)" 
fill="#17b4f9"/>
    <path id="Intersection_2" data-name="Intersection 2" d="M-212,294.95v0a127.518,127.518,0,0,1-34.555-18.358,128.558,128.558,0,0,1-27.216-27.642A127.448,127.448,0,0,1-291.6,214.07,127.858,127.858,0,0,1-298,174a127.858,127.858,0,0,1,6.4-40.07,127.448,127.448,0,0,1,17.829-34.879A128.557,128.557,0,0,1-246.557,71.41,127.559,127.559,0,0,1-212,53.05v241.9Z" transform="translate(298 -46)" 
fill="#17b4f9"/>
    <g id="Intersection_3" data-name="Intersection 3" transform="translate(326 -66)" 
fill="#fff">
      <path d="M -198 321.5002136230469 C -212.2214813232422 321.5002136230469 -226.1825103759766 319.1766357421875 -239.5002899169922 314.5939636230469 L -239.5002899169922 73.40594482421875 C -226.1826629638672 68.82330322265625 -212.2216339111328 66.49971771240234 -198 66.49971771240234 C -183.4175720214844 66.49971771240234 -169.1208190917969 68.94040679931641 -155.4998016357422 73.75470733642578 L -155.4998016357422 314.2452087402344 C -169.1208953857422 319.0595397949219 -183.4176330566406 321.5002136230469 -198 321.5002136230469 Z" stroke="none"/>
      <path d="M -198 321.0002136230469 C -183.5934448242188 321.0002136230469 -169.4671020507812 318.6088256835938 -155.9998016357422 313.89111328125 L -155.9998016357422 74.10879516601562 C -169.467041015625 69.39108276367188 -183.5933685302734 66.99971771240234 -198 66.99971771240234 C -212.0466918945312 66.99971771240234 -225.8363037109375 69.27474975585938 -239.0002899169922 73.76319885253906 L -239.0002899169922 314.2366943359375 C -225.8361511230469 318.7251892089844 -212.0465240478516 321.0002136230469 -198 321.0002136230469 M -198 322.0002136230469 C -212.7131958007812 322.0002136230469 -226.8427276611328 319.51904296875 -240.0002899169922 314.9501647949219 L -240.0002899169922 73.04975128173828 C -226.8427276611328 68.48081970214844 -212.7131958007812 65.99971771240234 -198 65.99971771240234 C -182.9157562255859 65.99971771240234 -168.4384918212891 68.60985565185547 -154.9998016357422 73.40161895751953 L -154.9998016357422 314.5982971191406 C -168.4384918212891 319.3900451660156 -182.9157562255859 322.0002136230469 -198 322.0002136230469 Z" stroke="none" 
fill="#707070"/>
    </g>
  </g>
</svg>
