<svg xmlns="http://www.w3.org/2000/svg" xmlns:xlink="http://www.w3.org/1999/xlink" width="256" height="256" viewBox="0 0 256 256">
  <defs>
    <clipPath id="clip-dobbeldoes">
      <rect width="256" height="256"/>
    </clipPath>
  </defs>
  <g id="dobbeldoes" clip-path="url(#clip-dobbeldoes)">
    <rect width="256" height="256" 
fill="#fff"/>
    <path id="Intersection_1" data-name="Intersection 1" d="M-155,36.4a127.572,127.572,0,0,1,34.181,18.475,128.552,128.552,0,0,1,26.9,27.595,127.44,127.44,0,0,1,17.608,34.708A127.906,127.906,0,0,1-70,157a127.906,127.906,0,0,1-6.314,39.819,127.445,127.445,0,0,1-17.608,34.709,128.547,128.547,0,0,1-26.9,27.594A127.543,127.543,0,0,1-155,277.6h0Z" transform="translate(326 -29)" 
fill="#878787"/>
    <path id="Intersection_2" data-name="Intersection 2" d="M-212,294.95v0a127.518,127.518,0,0,1-34.555-18.358,128.558,128.558,0,0,1-27.216-27.642A127.448,127.448,0,0,1-291.6,214.07,127.858,127.858,0,0,1-298,174a127.858,127.858,0,0,1,6.4-40.07,127.448,127.448,0,0,1,17.829-34.879A128.557,128.557,0,0,1-246.557,71.41,127.559,127.559,0,0,1-212,53.05v241.9Z" transform="translate(298 -46)" 
fill="#878787"/>
    <path id="Intersection_3" data-name="Intersection 3" d="M-240,314.95V73.05A127.791,127.791,0,0,1-198,66a127.8,127.8,0,0,1,43,7.4V314.6a127.8,127.8,0,0,1-43,7.4A127.792,127.792,0,0,1-240,314.95Z" transform="translate(326 -66)" 
fill="#135a23"/>
  </g>
</svg>
