<svg xmlns="http://www.w3.org/2000/svg" viewBox="0 0 108.15 46.11"><defs><style>.cls-1{fill:#fff;}</style></defs><title>Asset 1</title><g id="Layer_2" data-name="Layer 2"><g id="Layer_1-2" data-name="Layer 1"><path class="cls-1" d="M21.32,11.9v2.94c0,7.42-4.13,11.06-10.29,11.06-6,0-11-3-11-12.56S5,.7,11,.7c4.62,0,8.33,1.93,10,7.07L16.45,9.21C15.54,6,13.55,4.87,11,4.87c-3.29,0-6.09,1.82-6.09,8.47s2.8,8.4,6.09,8.4c2.9,0,5-1.12,5.28-5.67H9.73V11.9Z"/><path class="cls-1" d="M40.67,24.19a16.19,16.19,0,0,1-6.93,1.71c-6,0-9.62-3.46-9.62-9.1,0-5.46,2.94-9.1,8.71-9.1C38.29,7.7,41,11.2,41,16v2.59H29.23c.49,2,1.92,3.12,4.62,3.12A12.4,12.4,0,0,0,39.1,20.3ZM29.33,14.6H36c-.14-1.89-1.44-2.73-3.19-2.73A3.41,3.41,0,0,0,29.33,14.6Z"/><path class="cls-1" d="M60.55,24.19a16.19,16.19,0,0,1-6.93,1.71c-5.95,0-9.62-3.46-9.62-9.1,0-5.46,2.94-9.1,8.71-9.1,5.46,0,8.16,3.5,8.16,8.33v2.59H49.11c.49,2,1.92,3.12,4.62,3.12A12.4,12.4,0,0,0,59,20.3ZM49.21,14.6H55.9c-.14-1.89-1.44-2.73-3.19-2.73A3.41,3.41,0,0,0,49.21,14.6Z"/><path class="cls-1" d="M64.37,0H69.3V19.88c0,1.09.39,1.65,1.19,1.65a3.07,3.07,0,0,0,1.23-.32l.7,4.1a12.06,12.06,0,0,1-3.5.59c-2.63,0-4.55-1.15-4.55-4.86Z"/><path class="cls-1" d="M87,13.2a10.46,10.46,0,0,0-4.72-1.33c-1.16,0-1.93.35-1.93,1.08,0,2.21,8.93,1.16,8.93,7.14,0,4.13-3.15,5.81-7.28,5.81a11.38,11.38,0,0,1-7.36-2.31l2.28-3.78A9.25,9.25,0,0,0,82,21.74c1.08,0,2.31-.14,2.31-1.3,0-2.62-8.92-1-8.92-7.49,0-3.78,3.36-5.25,7-5.25a13.71,13.71,0,0,1,6.37,1.51Z"/><path class="cls-1" d="M107.84,24.19a16.22,16.22,0,0,1-6.93,1.71c-6,0-9.63-3.46-9.63-9.1,0-5.46,2.94-9.1,8.72-9.1,5.46,0,8.15,3.5,8.15,8.33v2.59H96.39c.49,2,1.93,3.12,4.62,3.12a12.4,12.4,0,0,0,5.25-1.44ZM96.5,14.6h6.68c-.14-1.89-1.43-2.73-3.18-2.73A3.4,3.4,0,0,0,96.5,14.6Z"/><path class="cls-1" d="M2.65,37.53l1.73,5,1.77-5H8.69l-3.3,8.41h-2L.09,37.53Z"/><path class="cls-1" d="M14.37,39.73a3,3,0,0,0-.93-.17c-1,0-1.21.81-1.21,2v4.34H9.86V37.53h2.37v.79a1.82,1.82,0,0,1,1.62-1,2.69,2.69,0,0,1,.92.17Z"/><path class="cls-1" d="M16.44,39.53h-1v-2H17.7c.84,0,1.11.13,1.11.92v7.49H16.44Zm0-5.37h2.29v2.22H16.49Z"/><path class="cls-1" d="M28.51,45.28a7.71,7.71,0,0,1-3.33.83c-2.86,0-4.62-1.67-4.62-4.38s1.41-4.37,4.18-4.37,3.92,1.68,3.92,4v1.25H23a2,2,0,0,0,2.22,1.49,5.85,5.85,0,0,0,2.53-.69Zm-5.45-4.61h3.22a1.36,1.36,0,0,0-1.54-1.31A1.64,1.64,0,0,0,23.06,40.67Z"/><path class="cls-1" d="M32.8,45.94H30.43V37.53H32.8v.79a3,3,0,0,1,2.34-1c1.68,0,2.67,1,2.67,3.18v5.4H35.44V40.59a1.08,1.08,0,0,0-1.18-1.23c-.87,0-1.46.72-1.46,2.61Z"/><path class="cls-1" d="M45.26,45a3.18,3.18,0,0,1-2.4,1.16c-1.86,0-3.3-1.33-3.3-4.26s1.41-4.49,3.56-4.49a2.62,2.62,0,0,1,2,.93V33.66h2.37v9.22a21.21,21.21,0,0,0,.19,3.06H45.6A5.27,5.27,0,0,1,45.26,45Zm-.12-3.69v-.89a1.82,1.82,0,0,0-1.6-1c-.95,0-1.61.94-1.61,2.49s.62,2.25,1.5,2.25S45.14,43.13,45.14,41.26Z"/><path class="cls-1" d="M57.22,45.28a7.71,7.71,0,0,1-3.33.83c-2.86,0-4.63-1.67-4.63-4.38s1.41-4.37,4.19-4.37a3.65,3.65,0,0,1,3.92,4v1.25H51.72a2,2,0,0,0,2.22,1.49,5.85,5.85,0,0,0,2.52-.69Zm-5.45-4.61H55a1.36,1.36,0,0,0-1.53-1.31A1.63,1.63,0,0,0,51.77,40.67Z"/><path class="cls-1" d="M61.5,45.94H59.13V37.53H61.5v.79a3,3,0,0,1,2.34-1c1.68,0,2.68,1,2.68,3.18v5.4H64.14V40.59A1.08,1.08,0,0,0,63,39.36c-.88,0-1.47.72-1.47,2.61Z"/><path class="cls-1" d="M76.25,43.77a3.87,3.87,0,0,1-3.8,2.34c-2.79,0-4.19-1.75-4.19-4.38s1.4-4.37,4.19-4.37a3.92,3.92,0,0,1,3.68,2l-2,1.23a1.9,1.9,0,0,0-1.63-1.25c-1.23,0-1.82.93-1.82,2.37s.59,2.37,1.82,2.37a1.84,1.84,0,0,0,1.65-1.29Z"/><path class="cls-1" d="M77.38,33.66h2.37v9.55c0,.52.18.79.57.79a1.46,1.46,0,0,0,.59-.15l.34,2a5.77,5.77,0,0,1-1.69.29c-1.26,0-2.18-.56-2.18-2.34Z"/><path class="cls-1" d="M85.4,46.11c-1.8,0-2.89-.93-2.89-3.2V37.53h2.37v5.28c0,.89.45,1.29,1.11,1.29.94,0,1.53-.9,1.53-2.5V37.53h2.37v5.35a22.8,22.8,0,0,0,.18,3.06H87.72a2.92,2.92,0,0,1-.2-.94A2.46,2.46,0,0,1,85.4,46.11Z"/><path class="cls-1" d="M91.87,33.66h2.37v4.76a2.82,2.82,0,0,1,2.31-1.06c1.87,0,3.28,1.35,3.28,4.22,0,3.05-1.41,4.53-3.6,4.53a2.78,2.78,0,0,1-2.15-1,4.28,4.28,0,0,1-.29.83h-2.1a22.8,22.8,0,0,0,.18-3.06Zm2.37,9.59a2,2,0,0,0,1.58.85c1,0,1.64-.92,1.64-2.52s-.61-2.22-1.48-2.22-1.74,1-1.74,2.84Z"/><path class="cls-1" d="M107,40a5,5,0,0,0-2.27-.64c-.56,0-.93.17-.93.52,0,1.06,4.29.56,4.29,3.43,0,2-1.51,2.8-3.5,2.8A5.47,5.47,0,0,1,101.07,45l1.09-1.82a4.41,4.41,0,0,0,2.46.92c.52,0,1.11-.06,1.11-.62,0-1.26-4.29-.47-4.29-3.6,0-1.81,1.61-2.52,3.38-2.52a6.67,6.67,0,0,1,3.06.72Z"/></g></g></svg>