<svg xmlns="http://www.w3.org/2000/svg" xmlns:xlink="http://www.w3.org/1999/xlink" width="256" height="256" viewBox="0 0 256 256">
  <defs>
    <clipPath id="clip-sparta-kevers">
      <rect width="256" height="256"/>
    </clipPath>
  </defs>
  <g id="sparta-kevers" clip-path="url(#clip-sparta-kevers)">
    <rect width="256" height="256" 
fill="#fff"/>
    <path id="Subtraction_1" data-name="Subtraction 1" d="M128,256h-.015a128.864,128.864,0,0,1-25.781-2.6,127.3,127.3,0,0,1-45.77-19.26,128.373,128.373,0,0,1-46.375-56.316A127.355,127.355,0,0,1,2.6,153.8a129.248,129.248,0,0,1,0-51.593A127.3,127.3,0,0,1,21.86,56.434,128.373,128.373,0,0,1,78.177,10.059,127.355,127.355,0,0,1,102.2,2.6,128.946,128.946,0,0,1,128,0Z" 
fill="#004660"/>
    <path id="Subtraction_2" data-name="Subtraction 2" d="M128,256h-.015a128.864,128.864,0,0,1-25.781-2.6,127.3,127.3,0,0,1-45.77-19.26,128.373,128.373,0,0,1-46.375-56.316A127.355,127.355,0,0,1,2.6,153.8a129.248,129.248,0,0,1,0-51.593A127.3,127.3,0,0,1,21.86,56.434,128.373,128.373,0,0,1,78.177,10.059,127.355,127.355,0,0,1,102.2,2.6,128.946,128.946,0,0,1,128,0Z" transform="translate(256 256) rotate(180)" 
fill="#64b2cf"/>
  </g>
</svg>
